<svg xmlns="http://www.w3.org/2000/svg" width="17.162" height="12.068" viewBox="0 0 17.162 12.068">
  <g id="_8888f5f94c5965687766bd45f4212c6e_1_" data-name="8888f5f94c5965687766bd45f4212c6e (1)" transform="translate(0 0)">
    <path id="Path_2" data-name="Path 2" d="M26.985,158a3.7,3.7,0,0,0-.683-1.7,2.461,2.461,0,0,0-1.72-.727c-2.4-.175-6-.175-6-.175h-.007s-3.6,0-6,.175a2.461,2.461,0,0,0-1.72.727,3.677,3.677,0,0,0-.681,1.7,26.182,26.182,0,0,0-.17,2.779v1.3a26.048,26.048,0,0,0,.172,2.779,3.712,3.712,0,0,0,.681,1.7,2.927,2.927,0,0,0,1.895.734c1.375.131,5.834.172,5.834.172s3.607-.007,6.006-.179a2.46,2.46,0,0,0,1.72-.727,3.687,3.687,0,0,0,.683-1.7,25.918,25.918,0,0,0,.172-2.779v-1.3A26.872,26.872,0,0,0,26.985,158ZM16.8,163.661v-4.824l4.635,2.42-4.635,2.4Z" transform="translate(-10 -155.4)" fill="#fff"/>
  </g>
</svg>
