<svg xmlns="http://www.w3.org/2000/svg" width="18.561" height="15.074" viewBox="0 0 18.561 15.074">
  <g id="beb27981f6333d0b8164827bce3c3219_1_" data-name="beb27981f6333d0b8164827bce3c3219 (1)" transform="translate(0 0)">
    <path id="Path_1" data-name="Path 1" d="M28.561,103.89a7.607,7.607,0,0,1-2.191.589,3.691,3.691,0,0,0,1.672-2.1,7.47,7.47,0,0,1-2.415.919,3.807,3.807,0,0,0-6.585,2.6,4.241,4.241,0,0,0,.095.871,10.584,10.584,0,0,1-4.375-1.172,10.766,10.766,0,0,1-3.468-2.809,3.813,3.813,0,0,0-.057,3.733,3.8,3.8,0,0,0,1.237,1.354,3.757,3.757,0,0,1-1.72-.483v.047a3.673,3.673,0,0,0,.866,2.421A3.738,3.738,0,0,0,13.8,111.18a3.9,3.9,0,0,1-1,.129,4.729,4.729,0,0,1-.718-.059,3.812,3.812,0,0,0,3.557,2.638,7.45,7.45,0,0,1-4.722,1.625,7.96,7.96,0,0,1-.919-.047,10.568,10.568,0,0,0,5.841,1.708,11.1,11.1,0,0,0,3.8-.642,9.673,9.673,0,0,0,3.038-1.72,11.467,11.467,0,0,0,2.172-2.479,11.013,11.013,0,0,0,1.36-2.926,10.779,10.779,0,0,0,.447-3.057q0-.33-.011-.494A7.956,7.956,0,0,0,28.561,103.89Z" transform="translate(-10 -102.1)" fill="#fff"/>
  </g>
</svg>
