<svg xmlns="http://www.w3.org/2000/svg" xmlns:xlink="http://www.w3.org/1999/xlink" width="20.486" height="20.486" viewBox="0 0 20.486 20.486">
  <defs>
    <linearGradient id="linear-gradient" x1="0.084" y1="0.916" x2="0.916" y2="0.084" gradientUnits="objectBoundingBox">
      <stop offset="0" stop-color="#ffd600"/>
      <stop offset="0.5" stop-color="#ff0100"/>
      <stop offset="1" stop-color="#d800b9"/>
    </linearGradient>
    <linearGradient id="linear-gradient-2" x1="0.146" y1="0.854" x2="0.854" y2="0.146" gradientUnits="objectBoundingBox">
      <stop offset="0" stop-color="#ff6400"/>
      <stop offset="0.5" stop-color="#ff0100"/>
      <stop offset="1" stop-color="#fd0056"/>
    </linearGradient>
    <linearGradient id="linear-gradient-3" x1="0.146" y1="0.854" x2="0.854" y2="0.146" gradientUnits="objectBoundingBox">
      <stop offset="0" stop-color="#f30072"/>
      <stop offset="1" stop-color="#e50097"/>
    </linearGradient>
  </defs>
  <g id="instagram-sketched_2_" data-name="instagram-sketched (2)" transform="translate(0 0)">
    <path id="Path_13" data-name="Path 13" d="M20.424,6.02a7.52,7.52,0,0,0-.476-2.486,5.02,5.02,0,0,0-1.181-1.814A5.022,5.022,0,0,0,16.952.537,7.519,7.519,0,0,0,14.466.062C13.374.012,13.025,0,10.243,0S7.112.012,6.02.061A7.521,7.521,0,0,0,3.533.538,5.02,5.02,0,0,0,1.719,1.719,5.021,5.021,0,0,0,.537,3.533,7.519,7.519,0,0,0,.062,6.02C.012,7.112,0,7.461,0,10.243s.012,3.131.062,4.223a7.518,7.518,0,0,0,.476,2.486,5.02,5.02,0,0,0,1.181,1.814,5.019,5.019,0,0,0,1.814,1.181,7.516,7.516,0,0,0,2.486.476c1.093.05,1.441.062,4.223.062s3.131-.012,4.223-.062a7.517,7.517,0,0,0,2.486-.476,5.237,5.237,0,0,0,3-3,7.518,7.518,0,0,0,.476-2.486c.05-1.093.062-1.441.062-4.223s-.012-3.131-.062-4.223Zm-1.844,8.362a5.667,5.667,0,0,1-.353,1.9,3.392,3.392,0,0,1-1.944,1.944,5.667,5.667,0,0,1-1.9.353c-1.08.049-1.4.06-4.139.06s-3.059-.01-4.139-.06a5.669,5.669,0,0,1-1.9-.353,3.174,3.174,0,0,1-1.178-.766,3.173,3.173,0,0,1-.766-1.178,5.667,5.667,0,0,1-.353-1.9c-.049-1.08-.06-1.4-.06-4.139s.01-3.059.06-4.139a5.671,5.671,0,0,1,.353-1.9,3.176,3.176,0,0,1,.766-1.178A3.171,3.171,0,0,1,4.2,2.258a5.666,5.666,0,0,1,1.9-.353c1.08-.049,1.4-.06,4.139-.06h0c2.735,0,3.059.01,4.139.06a5.668,5.668,0,0,1,1.9.353,3.176,3.176,0,0,1,1.178.766A3.171,3.171,0,0,1,18.228,4.2a5.662,5.662,0,0,1,.353,1.9c.049,1.08.06,1.4.06,4.139s-.01,3.059-.06,4.139Zm0,0" transform="translate(0 0)" fill="url(#linear-gradient)"/>
    <path id="Path_14" data-name="Path 14" d="M129.8,124.539a5.26,5.26,0,1,0,5.26,5.26A5.26,5.26,0,0,0,129.8,124.539Zm0,8.674a3.414,3.414,0,1,1,3.414-3.414A3.414,3.414,0,0,1,129.8,133.213Zm0,0" transform="translate(-119.556 -119.556)" fill="url(#linear-gradient-2)"/>
    <path id="Path_15" data-name="Path 15" d="M364.388,89.855a1.229,1.229,0,1,1-1.229-1.229A1.229,1.229,0,0,1,364.388,89.855Zm0,0" transform="translate(-347.448 -85.079)" fill="url(#linear-gradient-3)"/>
  </g>
</svg>
