<svg xmlns="http://www.w3.org/2000/svg" width="13.842" height="15.755" viewBox="0 0 13.842 15.755">
  <g id="tiktok_1_" data-name="tiktok (1)" transform="translate(-31.423 -0.39)">
    <path id="Path_11" data-name="Path 11" d="M45.257,4.335a3.969,3.969,0,0,1-2.4-.8A3.97,3.97,0,0,1,41.273.39H38.7V7.419l0,3.85A2.332,2.332,0,1,1,37.1,9.06V6.448a5.062,5.062,0,0,0-.742-.055,4.933,4.933,0,0,0-3.707,1.658,4.834,4.834,0,0,0,.218,6.666,5.018,5.018,0,0,0,.465.406,4.933,4.933,0,0,0,3.024,1.022,5.062,5.062,0,0,0,.742-.055,4.916,4.916,0,0,0,2.747-1.374,4.816,4.816,0,0,0,1.445-3.427L41.276,5.54A6.518,6.518,0,0,0,45.264,6.9V4.334h-.007Z" fill="#fff"/>
  </g>
</svg>
